<svg xmlns="http://www.w3.org/2000/svg" viewBox="0 0 221.41 70"><g id="Layer_2" data-name="Layer 2"><g id="Layer_1-2" data-name="Layer 1"><path d="M57.52,51.75a2.54,2.54,0,0,1-1.34-.29,1.4,1.4,0,0,1-.65-.79,3.58,3.58,0,0,1-.17-1.13V20.41a3.41,3.41,0,0,1,.17-1.11,1.41,1.41,0,0,1,.65-.76,2.77,2.77,0,0,1,1.44-.29,5.87,5.87,0,0,1,1.15.09,2.44,2.44,0,0,1,.7.27,2.7,2.7,0,0,1,.55.5L72.55,37.26H71.06L83.73,19a2,2,0,0,1,.58-.43,2.5,2.5,0,0,1,.74-.22,6.74,6.74,0,0,1,1.08-.07,2.54,2.54,0,0,1,1.37.29,1.58,1.58,0,0,1,.65.79,3.46,3.46,0,0,1,.19,1.17V49.64a3,3,0,0,1-.19,1.06,1.56,1.56,0,0,1-.68.76,2.64,2.64,0,0,1-1.39.29,2.44,2.44,0,0,1-1.32-.29,1.43,1.43,0,0,1-.62-.79A3.58,3.58,0,0,1,84,49.54v-24L73.7,40.62a3.57,3.57,0,0,1-.39.4,2.11,2.11,0,0,1-1.53.56,1.93,1.93,0,0,1-.86-.17,2,2,0,0,1-.56-.39c-.14-.14-.29-.31-.45-.5l-10.23-15V49.64a3.27,3.27,0,0,1-.16,1.06,1.51,1.51,0,0,1-.63.76A2.52,2.52,0,0,1,57.52,51.75Z"/><path d="M96.83,51.75a3,3,0,0,1-1.41-.26,1.22,1.22,0,0,1-.6-.77,4.2,4.2,0,0,1-.14-1.18V20.41a3.63,3.63,0,0,1,.16-1.13,1.34,1.34,0,0,1,.63-.77,3,3,0,0,1,1.41-.26,3,3,0,0,1,1.42.26,1.18,1.18,0,0,1,.57.77A5.17,5.17,0,0,1,99,20.46V49.59a3.89,3.89,0,0,1-.14,1.15,1.31,1.31,0,0,1-.6.75A3,3,0,0,1,96.83,51.75Z"/><path d="M107.25,51.75a2.32,2.32,0,0,1-1.3-.29,1.54,1.54,0,0,1-.6-.79,3.76,3.76,0,0,1-.16-1.17V20.26a2.63,2.63,0,0,1,.19-1,1.5,1.5,0,0,1,.69-.72,3.21,3.21,0,0,1,1.42-.26,4,4,0,0,1,1.49.19,2.65,2.65,0,0,1,.86.67l18,25.54V20.26a3,3,0,0,1,.17-1,1.37,1.37,0,0,1,.65-.72,3,3,0,0,1,1.39-.26,2.42,2.42,0,0,1,1.32.29,1.43,1.43,0,0,1,.62.79,3.75,3.75,0,0,1,.17,1.17v29a2.71,2.71,0,0,1-.22,1.13,1.57,1.57,0,0,1-.74.79,2.92,2.92,0,0,1-1.44.29,3.39,3.39,0,0,1-1.25-.19,2.37,2.37,0,0,1-.91-.72L109.51,25.5v24a3.08,3.08,0,0,1-.2,1.13,1.48,1.48,0,0,1-.67.79A2.64,2.64,0,0,1,107.25,51.75Z"/><path d="M164.13,18.25a3.58,3.58,0,0,1,1.06.14,1.1,1.1,0,0,1,.64.58,2.91,2.91,0,0,1,.22,1.29,2.76,2.76,0,0,1-.24,1.3,1.07,1.07,0,0,1-.67.55,4,4,0,0,1-1.06.12h-9.93V49.64a3.34,3.34,0,0,1-.17,1.1,1.4,1.4,0,0,1-.63.75,3,3,0,0,1-1.41.26,2.86,2.86,0,0,1-1.37-.26,1.29,1.29,0,0,1-.6-.77,4,4,0,0,1-.14-1.13V22.23h-10a4,4,0,0,1-1-.12,1.18,1.18,0,0,1-.7-.55,2.51,2.51,0,0,1-.26-1.3A2.74,2.74,0,0,1,138,19a1.19,1.19,0,0,1,.69-.58,3.69,3.69,0,0,1,1-.14Z"/><path d="M207.75,2a11.67,11.67,0,0,1,11.66,11.66V56.34A11.67,11.67,0,0,1,207.75,68H13.66A11.67,11.67,0,0,1,2,56.34V13.66A11.67,11.67,0,0,1,13.66,2H207.75m0-2H13.66A13.67,13.67,0,0,0,0,13.66V56.34A13.67,13.67,0,0,0,13.66,70H207.75a13.66,13.66,0,0,0,13.66-13.66V13.66A13.66,13.66,0,0,0,207.75,0Z"/></g></g></svg>