<svg xmlns="http://www.w3.org/2000/svg" xmlns:xlink="http://www.w3.org/1999/xlink" viewBox="0 0 196.92 55.62"><defs><style>.cls-1{isolation:isolate;}.cls-2{fill:none;stroke-miterlimit:10;stroke-width:0.62px;stroke:url(#linear-gradient);}.cls-3{fill:url(#linear-gradient-2);}.cls-4{opacity:0.5;mix-blend-mode:screen;fill:url(#linear-gradient-3);}.cls-5{fill:#fff;}</style><linearGradient id="linear-gradient" y1="27.81" x2="196.92" y2="27.81" gradientTransform="translate(70.65 126.27) rotate(-90)" gradientUnits="userSpaceOnUse"><stop offset="0" stop-color="#ff9908"/><stop offset="1" stop-color="#ff4879"/></linearGradient><linearGradient id="linear-gradient-2" x1="4.78" y1="27.81" x2="192.14" y2="27.81" gradientTransform="matrix(1, 0, 0, 1, 0, 0)" xlink:href="#linear-gradient"/><linearGradient id="linear-gradient-3" x1="4.78" y1="23.34" x2="192.14" y2="23.34" gradientUnits="userSpaceOnUse"><stop offset="0" stop-color="#ff9908"/><stop offset="1" stop-color="#ff4879" stop-opacity="0"/></linearGradient></defs><g class="cls-1"><g id="Layer_2" data-name="Layer 2"><g id="Layer_1-2" data-name="Layer 1"><rect class="cls-2" x="70.96" y="-70.34" width="55" height="196.3" rx="18.39" transform="translate(126.27 -70.65) rotate(90)"/><rect class="cls-3" x="4.78" y="4.78" width="187.36" height="46.06" rx="12.21"/><path class="cls-4" d="M179.36,4.48H17.56A12.78,12.78,0,0,0,4.78,17.26V41.71c0,.16,0,.32,0,.48.5-12.27,10.61-22.95,23-22.95h141.3c12.39,0,22.5,10.68,23,23,0-.16,0-.32,0-.48V17.26A12.78,12.78,0,0,0,179.36,4.48Z"/><path class="cls-5" d="M28.48,33.69a6.29,6.29,0,0,1-1.75-.26,7.09,7.09,0,0,1-1.68-.78,6.17,6.17,0,0,1-1.43-1.28,6,6,0,0,1-1-1.78,6.64,6.64,0,0,1-.36-2.25,6.29,6.29,0,0,1,.36-2.19,5.74,5.74,0,0,1,1-1.71,6,6,0,0,1,1.44-1.23,6.71,6.71,0,0,1,1.69-.75,6.78,6.78,0,0,1,1.77-.27,5,5,0,0,1,1.53.2,6.38,6.38,0,0,1,1.06.41,4.37,4.37,0,0,1,.54.3,5.12,5.12,0,0,1,.55.4.78.78,0,0,1,.28.55,1,1,0,0,1-.07.36,2,2,0,0,1-.2.34,1.59,1.59,0,0,1-.41.46.68.68,0,0,1-.41.14.65.65,0,0,1-.36-.1L30.6,24a4.05,4.05,0,0,0-.39-.23,5.06,5.06,0,0,0-.72-.27,3.74,3.74,0,0,0-1.09-.13,4.18,4.18,0,0,0-1.46.27,4.08,4.08,0,0,0-1.29.79,3.8,3.8,0,0,0-.9,1.28,4.13,4.13,0,0,0-.34,1.74,4.2,4.2,0,0,0,.34,1.75,3.61,3.61,0,0,0,.9,1.28,3.9,3.9,0,0,0,1.29.79,4.41,4.41,0,0,0,1.46.26,4.48,4.48,0,0,0,1-.11,3,3,0,0,0,.74-.29l.46-.25.37-.23a.65.65,0,0,1,.78,0,1.67,1.67,0,0,1,.41.45,3.49,3.49,0,0,1,.2.37.92.92,0,0,1,.05.37.75.75,0,0,1-.27.54,4,4,0,0,1-.54.38l-.54.31a5.84,5.84,0,0,1-1.06.42A5.92,5.92,0,0,1,28.48,33.69Z"/><path class="cls-5" d="M39.6,33.74a5.92,5.92,0,0,1-4.31-1.8A6.16,6.16,0,0,1,34,30a6.06,6.06,0,0,1-.48-2.41A6.74,6.74,0,0,1,34,25.08a6.43,6.43,0,0,1,1.28-2,5.86,5.86,0,0,1,1.9-1.36,5.47,5.47,0,0,1,2.31-.49A5.88,5.88,0,0,1,43.76,23a6.35,6.35,0,0,1,1.77,4.46,6.43,6.43,0,0,1-1.74,4.43,5.89,5.89,0,0,1-1.9,1.35A5.53,5.53,0,0,1,39.6,33.74Zm-.1-2.14A3.7,3.7,0,0,0,41,31.28a3.64,3.64,0,0,0,1.24-.88,4.12,4.12,0,0,0,.83-1.31,4.42,4.42,0,0,0,0-3.2,4.13,4.13,0,0,0-.84-1.32A4,4,0,0,0,41,23.68a3.43,3.43,0,0,0-1.5-.33,3.5,3.5,0,0,0-1.5.33,4,4,0,0,0-1.24.88A4.35,4.35,0,0,0,36,25.87a4.31,4.31,0,0,0-.3,1.61A4,4,0,0,0,36,29.07a4.28,4.28,0,0,0,.83,1.32,3.8,3.8,0,0,0,1.22.89A3.59,3.59,0,0,0,39.5,31.6Z"/><path class="cls-5" d="M47.89,33.58a1.39,1.39,0,0,1-.7-.14.77.77,0,0,1-.29-.4,2.19,2.19,0,0,1-.07-.53V22.33a1.89,1.89,0,0,1,.07-.5.69.69,0,0,1,.31-.37,1.4,1.4,0,0,1,.73-.15,1.72,1.72,0,0,1,.73.11,1.38,1.38,0,0,1,.38.35L54.9,30V22.33a1.89,1.89,0,0,1,.07-.5.71.71,0,0,1,.3-.37,1.38,1.38,0,0,1,.72-.15,1.22,1.22,0,0,1,.71.16.68.68,0,0,1,.29.4,2.26,2.26,0,0,1,.06.53V32.53a1.72,1.72,0,0,1-.08.52.71.71,0,0,1-.32.39,1.49,1.49,0,0,1-.73.14,2,2,0,0,1-.61-.07.8.8,0,0,1-.41-.29L49,25v7.51a2.12,2.12,0,0,1-.06.52.66.66,0,0,1-.29.39A1.45,1.45,0,0,1,47.89,33.58Z"/><path class="cls-5" d="M60.11,33.58a1.39,1.39,0,0,1-.7-.14.77.77,0,0,1-.29-.4,2.19,2.19,0,0,1-.07-.53V22.33a1.89,1.89,0,0,1,.07-.5.69.69,0,0,1,.31-.37,1.4,1.4,0,0,1,.73-.15,1.72,1.72,0,0,1,.73.11,1.38,1.38,0,0,1,.38.35L67.12,30V22.33a1.89,1.89,0,0,1,.07-.5.71.71,0,0,1,.3-.37,1.4,1.4,0,0,1,.73-.15,1.21,1.21,0,0,1,.7.16.68.68,0,0,1,.29.4,2.26,2.26,0,0,1,.06.53V32.53a1.72,1.72,0,0,1-.08.52.71.71,0,0,1-.32.39,1.47,1.47,0,0,1-.72.14,2.07,2.07,0,0,1-.62-.07.8.8,0,0,1-.41-.29L61.18,25v7.51a2.12,2.12,0,0,1-.06.52.66.66,0,0,1-.29.39A1.45,1.45,0,0,1,60.11,33.58Z"/><path class="cls-5" d="M72.54,33.6a1.35,1.35,0,0,1-.73-.15.64.64,0,0,1-.28-.39,2.38,2.38,0,0,1-.06-.55V22.38a1.1,1.1,0,0,1,.25-.84,1.28,1.28,0,0,1,.87-.23h6.84a2.38,2.38,0,0,1,.55.06.66.66,0,0,1,.39.29,1.51,1.51,0,0,1,.14.74,1.27,1.27,0,0,1-.15.71.63.63,0,0,1-.4.28,1.81,1.81,0,0,1-.54.07H73.61v2.93h4a1.88,1.88,0,0,1,.51.06.62.62,0,0,1,.35.26,1.35,1.35,0,0,1,.12.67,1.23,1.23,0,0,1-.12.62.54.54,0,0,1-.35.26,3,3,0,0,1-.55,0h-4v3.15h5.82a2.38,2.38,0,0,1,.55.06.66.66,0,0,1,.39.29,1.45,1.45,0,0,1,.14.72,1.33,1.33,0,0,1-.15.72.65.65,0,0,1-.4.29,2.23,2.23,0,0,1-.54.06Z"/><path class="cls-5" d="M88.07,33.69a6.17,6.17,0,0,1-1.74-.26,6.74,6.74,0,0,1-1.68-.78,6,6,0,0,1-1.43-1.28,5.85,5.85,0,0,1-1-1.78,6.64,6.64,0,0,1-.36-2.25,6.29,6.29,0,0,1,.36-2.19,5.56,5.56,0,0,1,1-1.71,5.79,5.79,0,0,1,1.43-1.23,6.93,6.93,0,0,1,3.46-1,5,5,0,0,1,1.53.2,6.53,6.53,0,0,1,1.07.41,4.83,4.83,0,0,1,.53.3,5.12,5.12,0,0,1,.55.4.74.74,0,0,1,.28.55.86.86,0,0,1-.07.36,1.93,1.93,0,0,1-.19.34,1.47,1.47,0,0,1-.42.46.68.68,0,0,1-.77,0L90.2,24l-.4-.23a4.88,4.88,0,0,0-.71-.27A3.78,3.78,0,0,0,88,23.35a4.14,4.14,0,0,0-1.46.27,4.08,4.08,0,0,0-1.29.79,3.69,3.69,0,0,0-.91,1.28A4.29,4.29,0,0,0,84,27.43a4.37,4.37,0,0,0,.33,1.75,3.51,3.51,0,0,0,.91,1.28,3.9,3.9,0,0,0,1.29.79,4.37,4.37,0,0,0,1.46.26,4.55,4.55,0,0,0,1-.11,2.92,2.92,0,0,0,.73-.29l.46-.25.37-.23a.72.72,0,0,1,.37-.11.67.67,0,0,1,.41.15,1.54,1.54,0,0,1,.42.45,3.28,3.28,0,0,1,.19.37.78.78,0,0,1,.05.37.75.75,0,0,1-.27.54,4,4,0,0,1-.54.38l-.54.31a5.3,5.3,0,0,1-1.06.42A5.87,5.87,0,0,1,88.07,33.69Z"/><path class="cls-5" d="M102.8,21.29a1.63,1.63,0,0,1,.47.06.57.57,0,0,1,.33.25,1.38,1.38,0,0,1,.12.66,1.22,1.22,0,0,1-.13.62.6.6,0,0,1-.35.26,2.26,2.26,0,0,1-.47.05H99.55v9.36a2.09,2.09,0,0,1-.06.53.63.63,0,0,1-.28.38,1.36,1.36,0,0,1-.73.14,1.27,1.27,0,0,1-.71-.15.65.65,0,0,1-.28-.38,2.92,2.92,0,0,1,0-.54V23.19H94.17a2.42,2.42,0,0,1-.47-.05.55.55,0,0,1-.34-.26,1.27,1.27,0,0,1-.12-.64,1.32,1.32,0,0,1,.12-.64.53.53,0,0,1,.34-.25,1.84,1.84,0,0,1,.47-.06Z"/><path class="cls-5" d="M113.58,33.55a1,1,0,0,1-.57-.13,1,1,0,0,1-.3-.31,1.69,1.69,0,0,1-.13-.3l-3.45-10.08a1.41,1.41,0,0,1,0-.87q.12-.28.72-.48a1.84,1.84,0,0,1,.65-.12.6.6,0,0,1,.42.2,1.66,1.66,0,0,1,.29.57l2.53,7.67,2.25-7.6a2.37,2.37,0,0,1,.15-.34.86.86,0,0,1,.31-.32,1.06,1.06,0,0,1,.58-.13,1.23,1.23,0,0,1,.65.14.94.94,0,0,1,.31.32,2.27,2.27,0,0,1,.13.3l2.27,7.68,2.53-7.7a1.89,1.89,0,0,1,.3-.59.59.59,0,0,1,.42-.23,1.51,1.51,0,0,1,.67.12,1.61,1.61,0,0,1,.57.32.57.57,0,0,1,.17.41,2,2,0,0,1-.11.65l-3.43,10.1a2,2,0,0,1-.13.28.84.84,0,0,1-.31.31,1.06,1.06,0,0,1-.58.13,1,1,0,0,1-.59-.16.93.93,0,0,1-.31-.35c-.07-.13-.11-.22-.14-.28L117,25l-2.39,7.7a2.15,2.15,0,0,1-.13.32,1,1,0,0,1-.31.34A1,1,0,0,1,113.58,33.55Z"/><path class="cls-5" d="M137.52,32.11a1.57,1.57,0,0,1,.18.59.59.59,0,0,1-.15.44,1.72,1.72,0,0,1-.53.37,1.11,1.11,0,0,1-.88.14,1.27,1.27,0,0,1-.58-.68l-3.9-8.27L127.76,33a1.28,1.28,0,0,1-.58.67,1.2,1.2,0,0,1-.88-.14,1.62,1.62,0,0,1-.52-.37.6.6,0,0,1-.14-.47,1.92,1.92,0,0,1,.2-.66l4.84-10.06a1.11,1.11,0,0,1,.41-.45,1,1,0,0,1,.59-.18.92.92,0,0,1,.38.08,1.19,1.19,0,0,1,.33.22,1.39,1.39,0,0,1,.26.35Zm-9-1.69.84-1.83H134l.83,1.83Z"/><path class="cls-5" d="M140,33.6a1.41,1.41,0,0,1-.74-.15.66.66,0,0,1-.29-.39,2.26,2.26,0,0,1-.06-.53V22.38a2.09,2.09,0,0,1,.06-.53.57.57,0,0,1,.28-.39,1.36,1.36,0,0,1,.74-.15,1.32,1.32,0,0,1,.71.15.68.68,0,0,1,.28.39,2.09,2.09,0,0,1,.06.53V31.7h5.35a2.44,2.44,0,0,1,.48.05.5.5,0,0,1,.34.24,1.3,1.3,0,0,1,.13.64,1.32,1.32,0,0,1-.13.65.57.57,0,0,1-.33.26,1.75,1.75,0,0,1-.48.06Z"/><path class="cls-5" d="M149.9,33.6a1.36,1.36,0,0,1-.74-.15.62.62,0,0,1-.29-.39,1.83,1.83,0,0,1-.07-.53V22.38a2.09,2.09,0,0,1,.06-.53.6.6,0,0,1,.28-.39,1.39,1.39,0,0,1,.74-.15,1.29,1.29,0,0,1,.71.15.64.64,0,0,1,.28.39,2.09,2.09,0,0,1,.06.53V31.7h5.35a2.44,2.44,0,0,1,.48.05.5.5,0,0,1,.34.24,1.2,1.2,0,0,1,.13.64,1.22,1.22,0,0,1-.13.65.57.57,0,0,1-.33.26,1.73,1.73,0,0,1-.47.06Z"/><path class="cls-5" d="M159.81,33.6a1.35,1.35,0,0,1-.73-.15.68.68,0,0,1-.28-.39,2.38,2.38,0,0,1-.06-.55V22.38a1.1,1.1,0,0,1,.25-.84,1.29,1.29,0,0,1,.88-.23h6.84a2.29,2.29,0,0,1,.54.06.63.63,0,0,1,.39.29,1.51,1.51,0,0,1,.14.74,1.27,1.27,0,0,1-.15.71.63.63,0,0,1-.4.28,1.81,1.81,0,0,1-.54.07h-5.8v2.93h4a2,2,0,0,1,.52.06.63.63,0,0,1,.34.26,1.35,1.35,0,0,1,.12.67,1.23,1.23,0,0,1-.12.62.54.54,0,0,1-.35.26,3,3,0,0,1-.55,0h-4v3.15h5.82a2.29,2.29,0,0,1,.54.06.63.63,0,0,1,.39.29,1.45,1.45,0,0,1,.14.72,1.33,1.33,0,0,1-.15.72.65.65,0,0,1-.4.29,2.23,2.23,0,0,1-.54.06Z"/><path class="cls-5" d="M178.56,21.29a1.6,1.6,0,0,1,.46.06.51.51,0,0,1,.33.25,1.38,1.38,0,0,1,.12.66,1.12,1.12,0,0,1-.13.62.58.58,0,0,1-.34.26,2.28,2.28,0,0,1-.48.05h-3.21v9.36a2.06,2.06,0,0,1-.07.53.6.6,0,0,1-.28.38,1.36,1.36,0,0,1-.73.14,1.29,1.29,0,0,1-.71-.15.59.59,0,0,1-.27-.38,2.23,2.23,0,0,1-.06-.54V23.19h-3.27a2.24,2.24,0,0,1-.46-.05.57.57,0,0,1-.35-.26,1.27,1.27,0,0,1-.12-.64,1.32,1.32,0,0,1,.12-.64.55.55,0,0,1,.35-.25,1.7,1.7,0,0,1,.46-.06Z"/></g></g></g></svg>